<svg xmlns="http://www.w3.org/2000/svg" viewBox="0 0 1920.18 589"><defs><style>.cls-1{fill:#46409f;}.cls-2{fill:#1a129f;}</style></defs><g id="Layer_2" data-name="Layer 2"><g id="Layer_5" data-name="Layer 5"><path class="cls-1" d="M1920,515v74H0V2.57C157.89-3.25,183.7,33.63,189,53.24c1.31,4.83,4.87,23.86,12,61.92,8.59,45.85,8.11,46.31,11,59.23,1.32,5.93,22.1,95.12,38,94.23,10.7-.59,5.39-41.22,30-93.62,9.7-20.64,27.93-42,64-84C416.64,6.51,432.12,3.21,443,4.78,460.13,7.25,472.37,22.7,494,50c4.25,5.36,21.27,27.31,31,51,32.67,79.52-20.31,170.12-5,177.05,6.39,2.88,19.55-11,29-21.54,10.45-11.63,15.32-21.34,26-39,12.68-21,24.58-38.41,29-44.42,18.12-24.66,58.67-52.8,81-43.08,34.93,15.22,13,118.69,30,122,11.35,2.23,22.16-43.84,59-99,24.34-36.44,68.33-102.31,117-98.41,30.73,2.46,50.63,31.72,79,73.41,24.07,35.38,57.22,84.09,53,145-3.52,50.82-31.18,83.23-13.54,106.37,6.76,8.86,33.75,33.81,39.55,38.8,2.65,2.28,4.92,4,7.07,5.66,3.61,2.77,6.17,4.91,6.28,5C1076.6,440,1111,392.47,1111,392.47c37.29-51.58,55.93-77.36,66-99.62,37.23-82.31,152.45-247.28,218-227.49,86.09,26,76.27,367.63,132,372.87,51,4.8,75.24-279.61,165-292.1,44.33-6.18,84.49,56.78,129,126.53C1878.3,362.47,1906,454.69,1920,515Z"/><path class="cls-2" d="M1920,589H0V165.61A774.81,774.81,0,0,1,96,81.35C177.32,21.37,227.63-17,270,7.47c15,8.68,34.5,53.79,74,142.69,0,0,5.93,13.35,20,39.42,0,0,8,14.78,31,45.3,5.44,7.21,9.71,12.53,16,13.12,4.71.44,9.81-3.36,19.83-11,2.77-2.11,9.42-7.58,20.58-17.71,3.33-3,7.07-6.61,11.59-11.25,0,0,5.11-5.23,10.08-10.81,12.14-13.62,65.77-82.75,87.92-107.65,26-29.21,68.83-77.39,106-63.27,9.66,3.67,21.5,12.52,55,92.88,44.56,106.87,49.21,152.57,90,207.31,19,25.5,30.86,41,49,43.07C899,374,924.53,315,967,253.81c47.17-68,109.73-158.14,173-162.88,97.87-7.33,129.54,194.78,225,189.81,87.27-4.55,114.5-176.27,185-165.58,78.74,12,89.92,233,168,242.31,66.86,8,107.44-148.34,151-134.62C1898.51,232.15,1922.48,317.3,1920,589Z"/></g></g></svg>